<svg width="15" height="15" viewBox="0 0 15 15" fill="none" xmlns="http://www.w3.org/2000/svg">
<path d="M10.0907 3.87825L11.2797 5.06674L10.0907 3.87825ZM10.8553 2.83123L7.64013 6.04639C7.474 6.21229 7.3607 6.42365 7.31452 6.65383L7.01753 8.14043L8.50413 7.84288C8.7343 7.79685 8.94539 7.68401 9.11157 7.51783L12.3267 4.30267C12.4233 4.20606 12.5 4.09136 12.5523 3.96512C12.6046 3.83889 12.6315 3.70359 12.6315 3.56695C12.6315 3.43032 12.6046 3.29502 12.5523 3.16878C12.5 3.04255 12.4233 2.92785 12.3267 2.83123C12.2301 2.73462 12.1154 2.65798 11.9892 2.60569C11.8629 2.5534 11.7276 2.52649 11.591 2.52649C11.4544 2.52649 11.3191 2.5534 11.1928 2.60569C11.0666 2.65798 10.9519 2.73462 10.8553 2.83123V2.83123Z" stroke="#68829E" stroke-width="1.2" stroke-linecap="round" stroke-linejoin="round"/>
<path d="M11.5088 9.2632V10.9474C11.5088 11.2452 11.3905 11.5308 11.1799 11.7414C10.9693 11.9519 10.6837 12.0702 10.386 12.0702H4.21051C3.91273 12.0702 3.62714 11.9519 3.41657 11.7414C3.206 11.5308 3.08771 11.2452 3.08771 10.9474V4.77198C3.08771 4.47419 3.206 4.1886 3.41657 3.97803C3.62714 3.76747 3.91273 3.64917 4.21051 3.64917H5.89472" stroke="#68829E" stroke-width="1.2" stroke-linecap="round" stroke-linejoin="round"/>
</svg>
